<?xml version="1.0" encoding="utf-8"?>
<!-- Generator: Adobe Illustrator 16.0.0, SVG Export Plug-In . SVG Version: 6.00 Build 0)  -->
<!DOCTYPE svg PUBLIC "-//W3C//DTD SVG 1.1//EN" "http://www.w3.org/Graphics/SVG/1.1/DTD/svg11.dtd">
<svg version="1.1" id="Layer_1" xmlns="http://www.w3.org/2000/svg" xmlns:xlink="http://www.w3.org/1999/xlink" x="0px" y="0px"
	 width="616.5px" height="147.167px" viewBox="-4.5 0 616.5 147.167" enable-background="new -4.5 0 616.5 147.167"
	 xml:space="preserve">
<g>
	<g>
		<g>
			<g>
				<circle fill="#3CF0FF" cx="21.529" cy="26.418" r="6.581"/>
				<circle fill="#3CF0FF" cx="114.914" cy="119.804" r="6.581"/>
				<circle fill="#3CF0FF" cx="91.568" cy="96.457" r="19.792"/>
				<circle fill="#3CF0FF" cx="44.875" cy="49.765" r="19.792"/>
				<circle fill="#3CF0FF" cx="114.914" cy="26.418" r="6.581"/>
				<circle fill="#3CF0FF" cx="124.281" cy="73.111" r="13.21"/>
				<circle fill="#3CF0FF" cx="68.221" cy="17.099" r="13.21"/>
				<circle fill="#3CF0FF" cx="68.221" cy="129.123" r="13.21"/>
				<circle fill="#3CF0FF" cx="12.21" cy="73.111" r="13.21"/>
				<circle fill="#3CF0FF" cx="21.529" cy="119.804" r="6.581"/>
				<circle fill="#3CF0FF" cx="44.875" cy="96.457" r="19.792"/>
				<circle fill="#3CF0FF" cx="91.568" cy="49.765" r="19.792"/>
			</g>
		</g>
	</g>
</g>
<g>
	<path fill="#FFFFFF" d="M212.767,83.536v11.48c-2.93,1.633-6.773,2.547-10.856,2.547c-13.307,0-24.74-10.424-24.74-24.451
		c0-14.077,11.433-24.452,24.74-24.452c4.131,0,7.926,0.912,10.856,2.546v11.481c-2.834-2.209-5.861-3.459-10.136-3.459
		c-7.494,0-13.979,5.766-13.979,13.883c0,8.215,6.485,13.98,13.979,13.98C206.906,87.09,209.932,85.793,212.767,83.536z"/>
	<path fill="#FFFFFF" d="M248.651,37.227c-1.393-0.72-2.834-1.104-4.468-1.104c-4.179,0-7.013,2.738-7.013,7.686v5.908h10.52v9.607
		h-10.52v37.133h-11.866V59.324h-7.686v-9.607h7.686v-6.629c0-10.424,6.389-17.055,16.525-17.055c2.738,0,5.044,0.386,6.869,1.201
		v9.992H248.651L248.651,37.227z"/>
	<path fill="#FFFFFF" d="M302.405,73.112c0,13.883-9.848,24.451-22.722,24.451c-6.917,0-12.682-3.555-15.228-7.688v25.748h-12.058
		v-65.86h12.058v6.581c2.546-4.131,8.311-7.687,15.228-7.687C292.557,48.66,302.405,59.324,302.405,73.112z M264.071,73.112
		c0,8.021,5.765,14.17,13.258,14.17c7.398,0,13.258-6.1,13.258-14.17c0-8.023-5.86-14.077-13.258-14.077
		C269.836,59.035,264.071,65.089,264.071,73.112z"/>
	<path fill="#FFFFFF" d="M341.652,97.563c-13.307,0-24.549-10.424-24.549-24.451c0-14.077,11.242-24.452,24.451-24.452
		c14.412,0,23.441,10.953,23.441,24.836c0,0.912,0,1.92-0.096,2.93h-36.604c1.297,7.014,6.773,11.48,13.402,11.48
		c5.477,0,9.223-2.113,11.24-6.197h11.527C361.443,91.895,352.604,97.563,341.652,97.563z M328.682,68.548h24.738
		c-0.625-5.044-4.852-10.04-11.865-10.04C335.455,58.507,330.314,62.445,328.682,68.548z"/>
	<path fill="#FFFFFF" d="M383.348,96.458h-12.059V49.765h12.059v5.476c2.449-3.746,7.303-6.58,13.211-6.58
		c10.76,0,17.053,7.398,17.053,17.822v30.024h-12.057V69.652c0-5.477-3.123-10.135-9.127-10.135c-5.766,0-9.129,4.659-9.129,10.231
		v26.708H383.348z"/>
	<path fill="#FFFFFF" d="M444.309,97.563c-13.309,0-24.547-10.424-24.547-24.451c0-14.077,11.238-24.452,24.449-24.452
		c14.412,0,23.443,10.953,23.443,24.836c0,0.912,0,1.92-0.098,2.93h-36.604c1.297,7.014,6.773,11.48,13.402,11.48
		c5.477,0,9.223-2.113,11.24-6.197h11.48C464.148,91.895,455.262,97.563,444.309,97.563z M431.387,68.548h24.738
		c-0.625-5.044-4.852-10.04-11.865-10.04C438.111,58.507,433.02,62.445,431.387,68.548z"/>
	<path fill="#FFFFFF" d="M501.666,61.053c-1.01-0.096-1.922-0.191-2.836-0.191c-6.916,0-12.346,3.746-12.346,12.778v22.818h-12.057
		V49.764h12.057v7.206c2.547-4.468,7.398-8.022,13.787-8.022c0.48,0,0.914,0.097,1.346,0.097v12.009H501.666L501.666,61.053z"/>
	<path fill="#FFFFFF" d="M541.248,88.002c-2.545,3.939-8.215,7.494-15.084,7.494c-12.25,0-22.338-10.039-22.338-23.346
		c0-13.403,10.137-23.443,22.338-23.443c6.869,0,12.49,3.651,15.084,7.493v-6.437h12.059v43.908
		c0,14.219-11.336,23.105-24.74,23.105c-12.152,0-22.096-6.389-23.922-17.871h11.865c1.439,5.045,5.859,7.83,12.057,7.83
		c6.822,0,12.684-4.082,12.684-12.488v-6.246H541.248z M528.662,59.035c-7.014,0-12.873,5.478-12.873,13.067
		c0,7.494,5.859,13.066,12.873,13.066c6.918,0,12.875-5.572,12.875-13.066C541.537,64.512,535.58,59.035,528.662,59.035z"/>
	<path fill="#FFFFFF" d="M578.285,89.637l-20.08-39.874h12.971l13.402,27.575l13.402-27.575h12.777l-33.818,65.86h-12.488
		L578.285,89.637z"/>
</g>
</svg>
